<svg width="48" height="50" viewBox="0 0 48 50" fill="none" xmlns="http://www.w3.org/2000/svg">
<g filter="url(#filter0_d_192_34)">
<path d="M29.5 14.6667C29.5 12.1472 28.4991 9.73083 26.7175 7.94923C24.9359 6.16764 22.5196 5.16675 20 5.16675C17.4804 5.16675 15.0641 6.16764 13.2825 7.94923C11.5009 9.73083 10.5 12.1472 10.5 14.6667C10.5 25.7501 5.75 28.9167 5.75 28.9167H34.25C34.25 28.9167 29.5 25.7501 29.5 14.6667Z" stroke="black" stroke-width="2" stroke-linecap="round" stroke-linejoin="round"/>
<path d="M22.7391 35.25C22.4607 35.7299 22.0612 36.1282 21.5804 36.4051C21.0997 36.682 20.5547 36.8277 19.9999 36.8277C19.4451 36.8277 18.9001 36.682 18.4194 36.4051C17.9387 36.1282 17.5391 35.7299 17.2607 35.25" stroke="black" stroke-width="2" stroke-linecap="round" stroke-linejoin="round"/>
</g>
<defs>
<filter id="filter0_d_192_34" x="-3" y="-2" width="54" height="54" filterUnits="userSpaceOnUse" color-interpolation-filters="sRGB">
<feFlood flood-opacity="0" result="BackgroundImageFix"/>
<feColorMatrix in="SourceAlpha" type="matrix" values="0 0 0 0 0 0 0 0 0 0 0 0 0 0 0 0 0 0 127 0" result="hardAlpha"/>
<feOffset dx="4" dy="4"/>
<feGaussianBlur stdDeviation="4"/>
<feComposite in2="hardAlpha" operator="out"/>
<feColorMatrix type="matrix" values="0 0 0 0 0 0 0 0 0 0 0 0 0 0 0 0 0 0 0.25 0"/>
<feBlend mode="normal" in2="BackgroundImageFix" result="effect1_dropShadow_192_34"/>
<feBlend mode="normal" in="SourceGraphic" in2="effect1_dropShadow_192_34" result="shape"/>
</filter>
</defs>
</svg>
